<?xml version="1.0" encoding="UTF-8"?>
<svg version="1.1" xmlns="http://www.w3.org/2000/svg" width="2245" height="1026">
<path d="M0 0 C740.85 0 1481.7 0 2245 0 C2245 338.58 2245 677.16 2245 1026 C1504.15 1026 763.3 1026 0 1026 C0 687.42 0 348.84 0 0 Z " fill="#231F20" transform="translate(0,0)"/>
<path d="M0 0 C1.32629425 0.10891571 1.32629425 0.10891571 2.67938232 0.22003174 C72.89379712 6.06782135 142.83770023 17.44107805 210 39 C211.17884766 39.37608398 212.35769531 39.75216797 213.57226562 40.13964844 C260.61338963 55.21826383 306.57509454 73.91301321 351.84130859 93.63037109 C355.10328443 95.04478479 358.37255923 96.44090773 361.64453125 97.83203125 C411.40886499 118.99650126 460.5365373 141.67322216 509.19604492 165.26098633 C515.54972521 168.33986814 521.91464908 171.38903629 528.3125 174.375 C532.7069668 176.42992829 537.08604395 178.5079222 541.42260742 180.68286133 C542.70891534 181.32410436 544.00105873 181.95374383 545.2980957 182.57299805 C549.49543539 184.60885688 553.36708767 186.87026781 557.26171875 189.44140625 C580.29165045 203.73170679 606.25366195 203.30275738 632.63345337 204.80181885 C653.68211758 206.04090714 674.61882559 208.24464361 695.5625 210.625 C696.32881115 210.71171589 697.0951223 210.79843178 697.884655 210.88777542 C738.45259464 215.4785654 778.84033034 221.03526663 819.125 227.6875 C820.22377472 227.86795868 821.32254944 228.04841736 822.45462036 228.23434448 C835.70469814 230.42262269 848.83193099 232.94249145 861.93383789 235.89306641 C868.04282165 237.25696289 874.19423915 238.32884544 880.36328125 239.37890625 C883.58286645 239.92876022 886.79319145 240.5053487 890 241.125 C890.763125 241.27195312 891.52625 241.41890625 892.3125 241.5703125 C894 242 894 242 895 243 C897.99491012 243.70783065 900.98935893 244.3649429 904 245 C908.50141099 245.97272678 913.00071738 246.95498339 917.5 247.9375 C918.67175781 248.18951172 919.84351563 248.44152344 921.05078125 248.70117188 C926.80645105 249.96406014 932.37690569 251.35881453 937.93505859 253.31469727 C942.1005663 254.69712575 946.40840221 255.53403567 950.69335938 256.4609375 C954.93783246 257.41369871 958.87710642 258.66331192 962.92602539 260.24609375 C966.68412867 261.61219415 970.56189141 262.53031585 974.4375 263.5 C980.72857839 265.08169854 986.86661018 266.88750986 993 269 C994.06347656 269.350625 995.12695312 269.70125 996.22265625 270.0625 C1003.65409427 272.51579453 1010.93541949 275.16483966 1018.19140625 278.09448242 C1018.82949219 278.35205322 1019.46757813 278.60962402 1020.125 278.875 C1020.76953125 279.13579346 1021.4140625 279.39658691 1022.078125 279.6652832 C1026.45104746 281.42040542 1030.85799129 283.02260986 1035.3125 284.5625 C1040.37079046 286.33803988 1045.08877033 288.39708107 1049.8359375 290.87890625 C1052.82072153 292.42517523 1055.89975738 293.70353491 1059 295 C1075.52830395 302.13556734 1091.35771442 310.55440433 1106.83056641 319.73339844 C1110.51797924 321.88625662 1114.25765265 323.94453783 1118 326 C1118 326.66 1118 327.32 1118 328 C1118.7425 328.28875 1119.485 328.5775 1120.25 328.875 C1122.56739797 329.82302644 1124.77917115 330.84845911 1127 332 C1127 332.66 1127 333.32 1127 334 C1128.03640625 334.34224609 1128.03640625 334.34224609 1129.09375 334.69140625 C1132.65035829 336.29283606 1135.48999927 338.50334384 1138.5 340.9375 C1139.40770142 341.66187256 1139.40770142 341.66187256 1140.33374023 342.40087891 C1144.61991702 345.83983347 1148.85673167 349.33827573 1153.0625 352.875 C1153.58585937 353.31448975 1154.10921875 353.75397949 1154.6484375 354.20678711 C1157.92655128 356.99413676 1160.99054418 359.92640824 1164 363 C1164.69222656 363.69222656 1165.38445312 364.38445312 1166.09765625 365.09765625 C1168.06510417 367.06510417 1170.03255208 369.03255208 1172 371 C1173.02867187 372.01900391 1173.02867187 372.01900391 1174.078125 373.05859375 C1178.76788814 377.79601708 1182.84406271 383.01076045 1186.875 388.3125 C1187.65617187 389.33988281 1188.43734375 390.36726563 1189.2421875 391.42578125 C1191 394 1191 394 1191 396 C1191.66 396 1192.32 396 1193 396 C1193.66 397.98 1194.32 399.96 1195 402 C1195.66 402 1196.32 402 1197 402 C1205.49576809 416.7467194 1212.59780725 431.97944468 1218 448.125 C1218.56037964 449.7946582 1218.56037964 449.7946582 1219.13208008 451.49804688 C1221.32479016 458.27044221 1222.93049357 464.96201441 1224 472 C1220.45933153 468.7584291 1217.94740861 465.07494551 1215.375 461.0625 C1200.50291946 438.35530479 1181.87086722 416.37542117 1161 399 C1160.48195801 398.56816406 1159.96391602 398.13632812 1159.43017578 397.69140625 C1150.88119889 390.60447006 1142.10736541 384.09112104 1132.74511719 378.11865234 C1131.14435217 377.09253241 1129.55957693 376.04157897 1127.9765625 374.98828125 C1098.14972276 355.69086393 1061.09133762 343.18594198 1025.4375 342.7265625 C1024.53987442 342.7142157 1023.64224884 342.7018689 1022.71742249 342.68914795 C1019.81158021 342.65696652 1016.90598926 342.63808076 1014 342.625 C1013.00821747 342.62010559 1012.01643494 342.61521118 1010.99459839 342.61016846 C997.51360841 342.58275897 984.37702741 343.21479528 971.0625 345.375 C970.37776611 345.48596008 969.69303223 345.59692017 968.98754883 345.71124268 C962.79394921 346.74143948 956.95178065 348.00325374 951 350 C949.824375 350.165 948.64875 350.33 947.4375 350.5 C944.21898785 350.96814722 941.9840044 351.78284031 939 353 C936.94380545 353.66563572 934.88072182 354.31023175 932.8125 354.9375 C931.66523437 355.288125 930.51796875 355.63875 929.3359375 356 C927.34512644 356.59677709 925.35126038 357.18371388 923.3515625 357.75 C896.68879232 365.34328083 870.61626221 380.59494572 850 399 C849.26861816 399.6511377 849.26861816 399.6511377 848.52246094 400.31542969 C844.96642086 403.49340421 841.47074338 406.72911685 838 410 C837.2678125 410.68964844 836.535625 411.37929688 835.78125 412.08984375 C821.11714241 426.31751957 809.35203917 443.91263246 800 462 C799.6277832 462.71317383 799.25556641 463.42634766 798.87207031 464.16113281 C790.2231854 480.93539809 784.36963059 498.66812874 780 517 C770.44457539 502.66686309 775.43614214 473.15118363 778.53808594 457.20263672 C787.19967925 415.89983816 816.60565559 381.30625162 851.21826172 358.54101562 C856.40555643 355.23539769 861.68921482 352.101968 867 349 C868.06081787 348.37085693 868.06081787 348.37085693 869.14306641 347.72900391 C876.73776731 343.23165247 884.18871205 339.20732481 892.546875 336.265625 C895.59376967 335.14888985 898.52523616 333.905787 901.5 332.61328125 C908.27030479 329.77786339 915.15705751 327.7947681 922.25 325.9375 C922.8953067 325.76668915 923.5406134 325.5958783 924.20547485 325.41989136 C944.31882604 320.11965342 964.42051201 317.25006335 985.1875 316.4375 C986.23486328 316.39431641 987.28222656 316.35113281 988.36132812 316.30664062 C990.90746397 316.20200491 993.45367178 316.09982454 996 316 C995.07058594 315.67386719 994.14117188 315.34773438 993.18359375 315.01171875 C991.94738281 314.57472656 990.71117187 314.13773438 989.4375 313.6875 C988.21933594 313.25824219 987.00117187 312.82898438 985.74609375 312.38671875 C983.36291671 311.50452078 980.99931495 310.56593966 978.66796875 309.5546875 C957.98719918 300.7890365 935.69681944 295.59948228 914 290 C913.30733032 289.82082031 912.61466064 289.64164063 911.90100098 289.45703125 C879.76138797 281.16344046 847.1726676 274.58643341 814.5625 268.4375 C813.29720459 268.19821777 812.03190918 267.95893555 810.72827148 267.71240234 C805.15508265 266.68216836 799.64024447 265.8171305 794.00170898 265.26025391 C791.39553771 264.92141032 788.89941584 264.23793911 786.36328125 263.56201172 C780.80863405 262.24106153 775.13585624 261.45913285 769.5 260.5625 C768.81903259 260.45294983 768.13806519 260.34339966 767.4364624 260.23052979 C757.46742563 258.62964769 747.49113972 257.19877367 737.45507812 256.07641602 C731.89270475 255.43678431 726.40465526 254.55273946 720.8984375 253.54296875 C712.13561831 251.94769192 703.35223076 250.89234515 694.5 249.9375 C693.03509903 249.7759085 691.57025508 249.6137993 690.10546875 249.45117188 C687.91218402 249.20777523 685.71885728 248.96485552 683.52526855 248.72421265 C678.53455567 248.17588596 673.54802189 247.59742936 668.5625 247.00390625 C648.56152485 244.63045142 628.51360392 242.43994033 608.4375 240.8125 C607.56867188 240.74095703 606.69984375 240.66941406 605.8046875 240.59570312 C587.73965398 239.20919161 569.65949477 238.76395777 551.54589844 238.70483398 C549.10931586 238.69332844 546.6727582 238.67289951 544.23632812 238.64331055 C528.50033818 238.45370754 513.48900646 239.39559869 497.96533203 242.03833008 C487.46920935 243.79435657 477.13925414 244.16825996 466.5078125 244.203125 C465.48501505 244.20736607 465.48501505 244.20736607 464.44155502 244.21169281 C460.81601342 244.22659851 457.19051054 244.23587606 453.56494141 244.24023438 C450.63707694 244.24457148 447.70951508 244.25828769 444.78173828 244.28125 C424.95016759 244.4336645 405.70528934 243.45677648 386 241 C383.56542958 240.71450798 381.13029352 240.43448822 378.69497681 240.15545654 C371.29915502 239.29915502 371.29915502 239.29915502 369 237 C369.77786865 236.93530518 370.5557373 236.87061035 371.35717773 236.80395508 C417.10947202 233.98886434 417.10947202 233.98886434 456.109375 212.875 C460.91852445 207.15171471 463.33688788 201.42272103 464.4375 194.08203125 C463.81768489 189.71565519 461.35450131 187.97443503 458.0625 185.375 C457.43496826 184.86066406 456.80743652 184.34632813 456.16088867 183.81640625 C437.8728013 169.05484217 417.63959332 156.86690422 397.24609375 145.27734375 C395.0979336 144.05569441 392.95487238 142.82551249 390.8125 141.59375 C377.49417561 133.973139 363.76046909 127.30160369 349.8840332 120.76391602 C344.95079896 118.43370057 340.06393123 116.02912378 335.1953125 113.56640625 C328.39523604 110.14378444 321.48966699 107.01473418 314.5 104 C313.8739386 103.72953857 313.2478772 103.45907715 312.60284424 103.18041992 C243.80781306 73.52668877 174.13098199 49.98898397 99.42790222 41.82284546 C94.68660371 41.30352909 89.9507312 40.75980738 85.21875 40.16015625 C52.01772485 35.97489839 18.40808342 33.80252376 -15 32 C-16.02641602 31.94215332 -17.05283203 31.88430664 -18.11035156 31.82470703 C-35.66631022 30.87869519 -53.23627067 30.89752913 -70.8125 30.875 C-71.98296875 30.87232117 -73.1534375 30.86964233 -74.359375 30.86688232 C-98.89431121 30.8243347 -123.13481492 31.96181421 -147.5625 34.25 C-148.74654419 34.36015442 -149.93058838 34.47030884 -151.1505127 34.58380127 C-169.28982413 36.28823787 -187.11999303 38.45310387 -205 42 C-206.32935464 42.25351508 -207.65895507 42.505744 -208.98876953 42.75683594 C-281.55596105 56.49303443 -348.02293836 85.43666623 -413 120 C-414.72755983 120.91333709 -416.45541952 121.82610724 -418.18359375 122.73828125 C-422.12537906 124.81993807 -426.06382676 126.90775221 -430 129 C-429.23598877 129.01458252 -428.47197754 129.02916504 -427.68481445 129.04418945 C-373.14266879 130.17873023 -319.05293327 135.75205642 -264.97229004 142.62365723 C-262.12872062 142.98370177 -259.28469855 143.33986372 -256.44042969 143.69433594 C-176.76726772 153.63374585 -97.41788668 166.42501539 -18.56140137 181.51092529 C-15.53887736 182.08804689 -12.5151911 182.6588677 -9.49136353 183.22911072 C-2.06173636 184.63163823 5.35744823 186.08324525 12.77294922 187.55847168 C15.25950166 188.05144801 17.74690597 188.53999039 20.234375 189.02832031 C50.77842599 195.03531042 81.07144121 201.83933802 111.28594971 209.328125 C113.94748736 209.98700027 116.61013111 210.64124356 119.27294922 211.29492188 C130.0740931 213.95690991 140.80740406 216.80616795 151.5 219.875 C152.25148315 220.08999146 153.00296631 220.30498291 153.77722168 220.52648926 C170.89457737 225.43669396 187.54218593 231.19244963 204 238 C200.02669458 239.32443514 198.47405605 238.3059526 194.5625 236.875 C177.19873564 230.81254144 159.19786712 227.5369394 141.12069702 224.37310791 C138.68033304 223.94375893 136.24123257 223.50751817 133.80200195 223.07177734 C120.50505385 220.71015584 107.19131279 218.59179318 93.8125 216.75 C92.76230682 216.60515167 91.71211365 216.46030334 90.63009644 216.31106567 C21.72901682 206.89538543 -47.79256907 201.13952196 -117.13671875 196.15943909 C-129.28417641 195.28610103 -141.42179685 194.32549696 -153.55804443 193.30886841 C-177.72028929 191.2854477 -201.89914018 189.53702406 -226.0859375 187.83813477 C-245.44395406 186.47776814 -264.7965502 185.05467902 -284.14713955 183.59243965 C-290.31898868 183.12620385 -296.49109161 182.66344359 -302.66333008 182.20239258 C-352.46114761 178.4812261 -402.24790271 174.67868944 -451.98254395 170.18229675 C-454.00492523 169.99955496 -456.02736112 169.81742698 -458.04980469 169.63537598 C-506.07995918 165.30604647 -554.06467176 160.24087172 -601.68505859 152.53222656 C-604.80443828 152.03139818 -607.9265174 151.55517006 -611.05078125 151.0859375 C-634.31875833 147.51498334 -657.69051564 142.77136187 -680.0625 135.375 C-681.11864502 135.02735596 -682.17479004 134.67971191 -683.26293945 134.3215332 C-690.26199672 131.89428117 -696.6052896 128.7297893 -703 125 C-703 124.67 -703 124.34 -703 124 C-702.1020874 123.98541748 -701.2041748 123.97083496 -700.27905273 123.95581055 C-673.05721591 123.46671272 -645.76398394 122.42108566 -619 117 C-617.98437988 116.79503906 -616.96875977 116.59007812 -615.92236328 116.37890625 C-603.37482275 113.8176669 -590.87398114 111.05659619 -578.4375 108 C-577.56077637 107.78754639 -576.68405273 107.57509277 -575.78076172 107.35620117 C-567.35672517 105.2382063 -559.12031412 102.54833369 -550.85031128 99.90576172 C-546.67962754 98.58041677 -542.50181072 97.27822874 -538.32398987 95.97558594 C-533.67292476 94.52534214 -529.02363618 93.06944143 -524.37426758 91.61376953 C-521.99486269 90.86972641 -519.61497694 90.12721936 -517.23461914 89.38623047 C-505.16516343 85.6276108 -493.16137137 81.84353167 -481.36694336 77.28759766 C-476.25801442 75.33382409 -471.07360918 73.63469055 -465.875 71.9375 C-457.65561671 69.22820088 -449.45114795 66.48161434 -441.265625 63.671875 C-440.42754303 63.38425797 -439.58946106 63.09664093 -438.72598267 62.80030823 C-434.57780756 61.37573894 -430.43076049 59.94795198 -426.28466797 58.51733398 C-417.56775794 55.51647879 -408.82923635 52.65715109 -400 50 C-398.6437151 49.57813585 -397.28811458 49.15405685 -395.93359375 48.7265625 C-378.78314132 43.32273279 -361.57432505 38.28258881 -344.1953125 33.66015625 C-339.74978603 32.47608006 -335.31924238 31.25007942 -330.89575195 29.98657227 C-321.85399665 27.40953312 -312.73952455 25.28756868 -303.5625 23.25 C-299.11386748 22.26004005 -294.6839102 21.20730486 -290.25683594 20.12548828 C-244.3002694 8.93765823 -197.1223397 2.5777641 -150 -1 C-149.29564819 -1.05434204 -148.59129639 -1.10868408 -147.86560059 -1.16467285 C-98.74776725 -4.91750249 -49.06215641 -4.03669811 0 0 Z " fill="#89858A" transform="translate(871,224)"/>
<path d="M0 0 C1.65 0 3.3 0 5 0 C14.90138472 23.3920992 24.77879314 46.79150648 34.46191406 70.27490234 C39.6556115 82.86041552 44.88826834 95.42972301 50.15509033 107.98480225 C50.95219049 109.88596933 51.74739609 111.78793043 52.54248047 113.68994141 C53.8719136 116.86040896 55.21421741 120.02501132 56.5625 123.1875 C56.93133301 124.07034668 57.30016602 124.95319336 57.68017578 125.86279297 C60.8551774 133.23359026 64.84160501 141.83814245 72 146 C74.97233853 146.86860569 77.94630094 147.49437663 81 148 C81.33 149.65 81.66 151.3 82 153 C62.53 153 43.06 153 23 153 C23.33 151.35 23.66 149.7 24 148 C24.68707031 147.89042969 25.37414062 147.78085937 26.08203125 147.66796875 C26.98308594 147.50941406 27.88414062 147.35085938 28.8125 147.1875 C29.70582031 147.03667969 30.59914063 146.88585937 31.51953125 146.73046875 C34.23991848 145.92934684 35.34200989 145.27906132 37 143 C38.08828146 132.66132613 33.42591823 123.25027067 29.3125 114 C28.49287043 112.14725594 27.67629852 110.29315517 26.86328125 108.4375 C26.32634644 107.22900391 26.32634644 107.22900391 25.77856445 105.99609375 C25 104 25 104 25 102 C5.86 102 -13.28 102 -33 102 C-34.485 106.455 -34.485 106.455 -36 111 C-36.71914126 112.71034936 -37.46729323 114.40923025 -38.26171875 116.0859375 C-38.65810547 116.95476562 -39.05449219 117.82359375 -39.46289062 118.71875 C-40.27840143 120.48764106 -41.10654174 122.25076474 -41.94726562 124.0078125 C-44.69279267 130.1029727 -46.5616457 136.3020095 -45 143 C-41.96946068 145.88476755 -39.34371121 146.55394946 -35.25 147.1875 C-34.26515625 147.34605469 -33.2803125 147.50460937 -32.265625 147.66796875 C-31.51796875 147.77753906 -30.7703125 147.88710938 -30 148 C-29.4375 149.9375 -29.4375 149.9375 -29 152 C-30.66226807 153.66226807 -32.6712853 153.19541238 -34.95947266 153.25634766 C-36.01792389 153.28532135 -37.07637512 153.31429504 -38.16690063 153.34414673 C-43.03182986 153.44140711 -47.89660591 153.51572744 -52.76220703 153.56982422 C-55.32698157 153.60645922 -57.89156591 153.66100308 -60.45556641 153.73388672 C-64.15075915 153.83739218 -67.84264273 153.88177292 -71.5390625 153.9140625 C-73.25193954 153.97903427 -73.25193954 153.97903427 -74.99942017 154.0453186 C-82.81194613 154.02684237 -82.81194613 154.02684237 -86.21987915 151.0813446 C-88.01408902 148.79706226 -89.51789125 146.49517745 -91 144 C-92.01049337 142.59606095 -93.03206747 141.19994843 -94.0703125 139.81640625 C-95.0902216 138.39964536 -96.10840023 136.98163739 -97.125 135.5625 C-98.26297567 133.98043626 -99.40099782 132.39840596 -100.5390625 130.81640625 C-101.39999512 129.61781982 -101.39999512 129.61781982 -102.27832031 128.39501953 C-105.01223823 124.59188074 -107.7563321 120.79610778 -110.5 117 C-113.85982013 112.3507741 -117.2170105 107.69971223 -120.56640625 103.04296875 C-121.15164063 102.23021484 -121.736875 101.41746094 -122.33984375 100.58007812 C-123.45679277 99.02876004 -124.57274047 97.47672031 -125.6875 95.92382812 C-127.85236719 92.91890433 -130.01911466 89.97672862 -132.37109375 87.11328125 C-134 85 -134 85 -134 83 C-139.28 83 -144.56 83 -150 83 C-149.931038 90.56257897 -149.84302699 98.12460959 -149.73754883 105.68676758 C-149.70434558 108.25799466 -149.67629942 110.82929382 -149.65356445 113.40063477 C-149.61993486 117.10203698 -149.5676123 120.8027814 -149.51171875 124.50390625 C-149.50532883 125.64896133 -149.4989389 126.79401642 -149.49235535 127.97377014 C-149.3651561 134.91776163 -149.16209196 140.83790804 -144 146 C-139.09355311 148.03438042 -134.23972818 148.55753406 -129 149 C-129 150.32 -129 151.64 -129 153 C-198.63 153 -268.26 153 -340 153 C-340 151.35 -340 149.7 -340 148 C-339.27554687 147.96261719 -338.55109375 147.92523437 -337.8046875 147.88671875 C-329.9513884 147.41658235 -329.9513884 147.41658235 -323 144 C-319.39912708 138.59536875 -319.55861769 133.57613468 -319.56762695 127.31298828 C-319.5574353 126.24897293 -319.54724365 125.18495758 -319.53674316 124.08869934 C-319.50662298 120.58251676 -319.49734844 117.07660745 -319.48828125 113.5703125 C-319.4714339 111.13507174 -319.45328358 108.69983968 -319.43388367 106.26461792 C-319.38638399 99.86302405 -319.35657418 93.46146543 -319.33044434 87.05975342 C-319.30063885 80.5241398 -319.25410841 73.98864763 -319.20898438 67.453125 C-319.12295148 54.63548271 -319.05503781 41.81781094 -319 29 C-319.66 29 -320.32 29 -321 29 C-321.09498779 29.66684814 -321.18997559 30.33369629 -321.2878418 31.02075195 C-322.19131845 34.80036305 -323.75298665 38.16615789 -325.39453125 41.66796875 C-325.73759308 42.41092194 -326.08065491 43.15387512 -326.43411255 43.91934204 C-327.55528588 46.3443912 -328.68391687 48.76589162 -329.8125 51.1875 C-330.59696963 52.88150733 -331.38090069 54.57576417 -332.16430664 56.27026367 C-334.09493596 60.4434502 -336.03104612 64.61406101 -337.96960449 68.78356934 C-340.29741946 73.79081213 -342.61925128 78.80082103 -344.9375 83.8125 C-345.39318359 84.79742432 -345.84886719 85.78234863 -346.31835938 86.79711914 C-351.04507953 97.04502682 -355.68008787 107.33420209 -360.3125 117.625 C-360.88386185 118.89351303 -360.88386185 118.89351303 -361.46676636 120.18765259 C-366.37814945 131.09627465 -371.2291274 142.02917843 -376 153 C-378.34326172 152.77929688 -378.34326172 152.77929688 -381 152 C-382.40283203 150.08007812 -382.40283203 150.08007812 -383.5078125 147.53125 C-383.9315918 146.57984131 -384.35537109 145.62843262 -384.79199219 144.64819336 C-385.23188477 143.60928955 -385.67177734 142.57038574 -386.125 141.5 C-386.59583008 140.43080322 -387.06666016 139.36160645 -387.55175781 138.26000977 C-389.05117285 134.84702474 -390.52529887 131.42372416 -392 128 C-393.4466151 124.69957801 -394.90027854 121.40233303 -396.35498047 118.10546875 C-397.25148835 116.06957685 -398.14407571 114.03195155 -399.03173828 111.9921875 C-401.9507068 105.29579658 -405.00236449 98.66770401 -408.10351562 92.05444336 C-413.82316822 79.84904662 -419.4044361 67.57813542 -425.01806641 55.32373047 C-426.22884419 52.68098833 -427.44216424 50.03948122 -428.65771484 47.39892578 C-429.96457095 44.55998475 -431.26491906 41.71818878 -432.5625 38.875 C-432.92585449 38.08971924 -433.28920898 37.30443848 -433.66357422 36.49536133 C-435.0268411 33.48989917 -436 31.34052678 -436 28 C-436.66 28 -437.32 28 -438 28 C-437.93939457 42.09106929 -437.86164947 56.18195527 -437.76428509 70.27282047 C-437.71957243 76.81590097 -437.68031799 83.35891907 -437.65356445 89.90209961 C-437.62754084 96.21753612 -437.5871444 102.53273262 -437.53681374 108.84802055 C-437.52013878 111.25649466 -437.50862844 113.66501028 -437.50238609 116.07353401 C-437.4927522 119.44909912 -437.46469994 122.82404932 -437.43237305 126.19946289 C-437.43380814 127.19352646 -437.43524323 128.18759003 -437.4367218 129.21177673 C-437.34881542 135.70943543 -436.81482384 141.18517616 -432 146 C-429.44132526 146.4657363 -426.95312092 146.83484248 -424.375 147.125 C-423.66859375 147.21136719 -422.9621875 147.29773438 -422.234375 147.38671875 C-420.49049859 147.59881183 -418.7453516 147.80040991 -417 148 C-417 149.65 -417 151.3 -417 153 C-468.81 153 -520.62 153 -574 153 C-573.67 151.35 -573.34 149.7 -573 148 C-572.03578125 147.91363281 -571.0715625 147.82726562 -570.078125 147.73828125 C-568.18320312 147.52751953 -568.18320312 147.52751953 -566.25 147.3125 C-564.37054687 147.12107422 -564.37054687 147.12107422 -562.453125 146.92578125 C-558.32242669 145.8183429 -557.2146285 144.58533304 -555 141 C-553.95873076 137.87619227 -553.84447668 135.61482146 -553.79467773 132.33520508 C-553.77449585 131.15800903 -553.75431396 129.98081299 -553.73352051 128.76794434 C-553.71704468 127.53096802 -553.70056885 126.2939917 -553.68359375 125.01953125 C-553.66494263 123.88237671 -553.6462915 122.74522217 -553.6270752 121.5736084 C-553.55870354 117.3199857 -553.49860209 113.06623333 -553.4375 108.8125 C-553.293125 99.304375 -553.14875 89.79625 -553 80 C-575.44 80.33 -597.88 80.66 -621 81 C-621.061875 89.91 -621.12375 98.82 -621.1875 108 C-621.21481201 110.79855469 -621.24212402 113.59710937 -621.27026367 116.48046875 C-621.27903133 118.71614145 -621.2866746 120.95181897 -621.29296875 123.1875 C-621.30831665 124.33412109 -621.32366455 125.48074219 -621.33947754 126.66210938 C-621.34158896 133.15965522 -620.89004496 138.13441347 -618 144 C-612.95793909 147.87850839 -606.15519076 148.15341227 -600 149 C-600.33 150.32 -600.66 151.64 -601 153 C-621.79 153 -642.58 153 -664 153 C-664 151.35 -664 149.7 -664 148 C-662.91332031 147.94392578 -662.91332031 147.94392578 -661.8046875 147.88671875 C-653.9513884 147.41658235 -653.9513884 147.41658235 -647 144 C-643.14622013 138.38997833 -643.57606206 132.74237638 -643.61181641 126.19897461 C-643.60655945 125.01619431 -643.60130249 123.833414 -643.59588623 122.61479187 C-643.5849702 119.38338407 -643.58749274 116.15234693 -643.59702349 112.92094493 C-643.6046408 109.53335361 -643.5975689 106.14578631 -643.59286499 102.75819397 C-643.58741419 97.07141704 -643.594582 91.38475718 -643.60888672 85.69799805 C-643.62521989 79.12909446 -643.61991735 72.56047013 -643.6034075 65.99157327 C-643.58978266 60.34383824 -643.58787759 54.69618715 -643.59572351 49.04844099 C-643.60039357 45.67863454 -643.60104321 42.30895926 -643.59111404 38.9391613 C-643.58350424 35.18312505 -643.59509782 31.42762698 -643.61181641 27.67163086 C-643.60574371 26.55824341 -643.59967102 25.44485596 -643.59341431 24.29772949 C-643.60187378 23.27300034 -643.61033325 22.24827118 -643.61904907 21.19248962 C-643.62018015 20.30522155 -643.62131123 19.41795347 -643.62247658 18.50379848 C-644.08913706 15.40882809 -645.18955964 13.53398169 -647 11 C-652.19271965 7.36509624 -657.85976916 7.31684465 -664 7 C-664 5.68 -664 4.36 -664 3 C-642.88 3 -621.76 3 -600 3 C-600.33 4.32 -600.66 5.64 -601 7 C-601.73605469 7.03738281 -602.47210937 7.07476563 -603.23046875 7.11328125 C-609.7163249 7.55024118 -614.21437278 7.91591272 -618.75 12.9375 C-620.97482392 16.60845946 -621.13477112 20.08626699 -621.20532227 24.31933594 C-621.22550415 25.39489746 -621.24568604 26.47045898 -621.26647949 27.57861328 C-621.28295532 28.70251465 -621.29943115 29.82641602 -621.31640625 30.984375 C-621.33505737 32.02223145 -621.3537085 33.06008789 -621.3729248 34.12939453 C-621.44117506 38.00284386 -621.50135404 41.87643201 -621.5625 45.75 C-621.706875 54.4125 -621.85125 63.075 -622 72 C-599.23 72 -576.46 72 -553 72 C-553.061875 62.698125 -553.12375 53.39625 -553.1875 43.8125 C-553.19418701 40.88221924 -553.20087402 37.95193848 -553.20776367 34.93286133 C-553.23420996 32.60756157 -553.26248715 30.28228161 -553.29296875 27.95703125 C-553.28898071 26.75187866 -553.28499268 25.54672607 -553.28088379 24.30505371 C-553.15340083 17.45520177 -553.15340083 17.45520177 -556.4074707 11.76831055 C-562.05489639 7.91631844 -567.30784284 7.49379024 -574 7 C-574 5.68 -574 4.36 -574 3 C-525.16 3 -476.32 3 -426 3 C-419.25363924 16.49272152 -419.25363924 16.49272152 -416.5625 22.875 C-414.45880283 27.77396523 -412.25251357 32.5686872 -409.8125 37.3125 C-405.6924196 45.40385429 -402.08350848 53.71550279 -398.41894531 62.02075195 C-395.17342775 69.37333376 -391.86233786 76.68451638 -388.43359375 83.953125 C-387.13751563 86.70773244 -385.87423564 89.47392081 -384.625 92.25 C-382.21467269 97.55433233 -379.77479 102.84461469 -377.3125 108.125 C-376.91949707 108.9799707 -376.52649414 109.83494141 -376.12158203 110.71582031 C-375.74759277 111.51342773 -375.37360352 112.31103516 -374.98828125 113.1328125 C-374.65352783 113.85355957 -374.31877441 114.57430664 -373.97387695 115.31689453 C-373.10323074 117.17763293 -373.10323074 117.17763293 -371 118 C-370.63003906 116.78570313 -370.26007813 115.57140625 -369.87890625 114.3203125 C-367.74799338 107.93629184 -364.82120471 101.94633133 -361.9375 95.875 C-360.76287754 93.38079553 -359.59330294 90.88425414 -358.42578125 88.38671875 C-357.9883963 87.4515316 -357.9883963 87.4515316 -357.54217529 86.49745178 C-354.79707368 80.60590022 -352.19210787 74.6582909 -349.625 68.6875 C-346.42431906 61.24687319 -343.13962994 53.8650297 -339.66796875 46.546875 C-335.03692085 36.69911975 -330.63509614 26.7441091 -326.1875 16.8125 C-325.58401155 15.46548262 -324.98049609 14.11847734 -324.37695312 12.77148438 C-322.9176583 9.51446193 -321.45872575 6.25727737 -320 3 C-293.86972824 2.95322936 -267.73946278 2.91798634 -241.60915756 2.89637566 C-229.47575224 2.88607367 -217.34237297 2.87203393 -205.20898438 2.84912109 C-194.63056236 2.82915424 -184.05215922 2.81627573 -173.47371888 2.81182301 C-167.87523452 2.80922122 -162.27680412 2.80312831 -156.6783371 2.78853989 C-151.40233267 2.77490391 -146.12640414 2.77078948 -140.85038376 2.77378464 C-138.92035128 2.77323716 -136.99031609 2.76929573 -135.06029892 2.76158905 C-118.22162529 2.69768357 -100.67503622 2.7614517 -87.74609375 15.1796875 C-87.16988281 15.78039062 -86.59367188 16.38109375 -86 17 C-85.15115234 17.87011719 -85.15115234 17.87011719 -84.28515625 18.7578125 C-77.30951567 26.36450125 -76 33.83650336 -76 44 C-76.92217361 54.25918139 -81.22285737 63.18186313 -89 70 C-96.24271325 75.00548091 -102.95848315 79 -112 79 C-109.61217898 84.23673851 -106.522129 88.64323768 -103.125 93.25 C-101.95423151 94.85272174 -100.78366438 96.45559058 -99.61328125 98.05859375 C-98.71536865 99.28425049 -98.71536865 99.28425049 -97.79931641 100.53466797 C-95.49791553 103.68793066 -93.22371436 106.86026559 -90.94921875 110.03295898 C-79.3533349 128.94288583 -79.3533349 128.94288583 -63 142 C-58.84914354 136.14359604 -55.55488529 130.34140604 -52.78515625 123.7265625 C-52.2268235 122.42433998 -52.2268235 122.42433998 -51.6572113 121.09580994 C-50.45043515 118.27576347 -49.25641317 115.45051315 -48.0625 112.625 C-47.2143885 110.63627602 -46.36541878 108.64791783 -45.515625 106.65991211 C-43.80421111 102.65295889 -42.09754726 98.64403749 -40.39501953 94.63330078 C-38.30705362 89.71700625 -36.20361526 84.80759038 -34.08984375 79.90234375 C-26.08270073 61.31029306 -18.19628843 42.66785029 -10.34375 24.01000977 C-9.75583931 22.61434029 -9.75583931 22.61434029 -9.15605164 21.19047546 C-8.42563821 19.45635281 -7.69593366 17.72193131 -6.96711731 15.98713684 C-4.70947865 10.62849092 -2.38057406 5.30516051 0 0 Z " fill="#FBFBFB" transform="translate(835,541)"/>
<path d="M0 0 C5.37295246 0.67532966 7.47667066 1.79157884 11 6 C12.87189382 9.09210188 13.2535852 11.38682105 13.26742554 14.98284912 C13.27595551 15.98648499 13.28448547 16.99012085 13.29327393 18.02416992 C13.29236755 19.11930908 13.29146118 20.21444824 13.29052734 21.34277344 C13.29724457 22.50093567 13.30396179 23.6590979 13.31088257 24.85235596 C13.32990831 28.68807241 13.33378932 32.52361427 13.3359375 36.359375 C13.34073901 38.35123239 13.34554392 40.34308982 13.35085833 42.33494592 C13.36713815 48.60058884 13.37202782 54.8661743 13.37060547 61.13183594 C13.3694054 67.58253106 13.39048095 74.03289087 13.4220928 80.4835012 C13.44830434 86.03102297 13.45897067 91.57843559 13.45769465 97.12601876 C13.45718626 100.43511957 13.46465623 103.74385666 13.48405075 107.05290985 C13.50368109 110.74877072 13.49788279 114.44377328 13.48583984 118.13964844 C13.49707886 119.22669067 13.50831787 120.31373291 13.51989746 121.43371582 C13.46778457 127.73843676 12.790777 132.8005093 9 138 C5.0625 141 5.0625 141 2 141 C2.62241466 136.64596567 3.65849834 132.67204716 5.06640625 128.5078125 C5.46923828 127.30898438 5.87207031 126.11015625 6.28710938 124.875 C6.70798828 123.6375 7.12886719 122.4 7.5625 121.125 C7.99195414 119.8517033 8.4209946 118.57826699 8.84960938 117.3046875 C9.89568255 114.20172887 10.94593952 111.1002526 12 108 C10.68 108 9.36 108 8 108 C7.76539063 108.845625 7.53078125 109.69125 7.2890625 110.5625 C5.80266642 114.52622289 3.84130929 117.5888511 1.375 121 C0.92987061 121.61721924 0.48474121 122.23443848 0.02612305 122.87036133 C-5.25846112 129.97597825 -11.94061965 135.84366667 -21.00738525 137.32881165 C-26.28472434 137.90129562 -31.4899901 138.160065 -36.796875 138.16796875 C-37.59353577 138.17129715 -38.39019653 138.17462555 -39.21099854 138.17805481 C-40.87812733 138.18307456 -42.545266 138.18546469 -44.21240234 138.18530273 C-46.75765288 138.18750663 -49.3024811 138.20576167 -51.84765625 138.22460938 C-53.47656103 138.22754093 -55.10546785 138.22952732 -56.734375 138.23046875 C-57.86730988 138.24124702 -57.86730988 138.24124702 -59.02313232 138.25224304 C-63.09426557 138.23463493 -66.50434561 138.19087741 -70 136 C-74.34440233 130.44195527 -73.37677817 123.42591942 -73.29296875 116.7265625 C-73.28872391 115.44768158 -73.28447906 114.16880066 -73.28010559 112.85116577 C-73.2661897 109.46765298 -73.23928324 106.08475773 -73.20599365 102.70141602 C-73.17518588 99.24240426 -73.1615775 95.78332846 -73.14648438 92.32421875 C-73.11344754 85.54930973 -73.06327151 78.77469049 -73 72 C-66.88028258 71.87587942 -60.76130689 71.78541444 -54.640625 71.7253418 C-52.56106798 71.70028495 -50.48159826 71.66622979 -48.40234375 71.62280273 C-45.40342606 71.56176155 -42.40567822 71.53370158 -39.40625 71.51171875 C-38.48509399 71.48591232 -37.56393799 71.4601059 -36.61486816 71.43351746 C-30.14730816 71.43074285 -26.04513438 72.93327023 -21 77 C-18.04718173 79.9947447 -17.44919341 82.63598101 -16.8125 86.75 C-16.65394531 87.73484375 -16.49539063 88.7196875 -16.33203125 89.734375 C-16.22246094 90.48203125 -16.11289062 91.2296875 -16 92 C-14.68 92.33 -13.36 92.66 -12 93 C-12.33 76.17 -12.66 59.34 -13 42 C-13.99 42 -14.98 42 -16 42 C-16.09796875 42.71285156 -16.1959375 43.42570313 -16.296875 44.16015625 C-17.25158586 50.27524394 -18.04276552 55.15238776 -22 60 C-30.14801451 65.54609817 -40.40059134 64.50640705 -49.78930664 64.35668945 C-52.58693357 64.31211066 -55.38370032 64.29516744 -58.18164062 64.28320312 C-59.95574171 64.26979773 -61.72983217 64.25487996 -63.50390625 64.23828125 C-64.34232559 64.23089432 -65.18074493 64.22350739 -66.04457092 64.21589661 C-71.88159429 64.11840571 -71.88159429 64.11840571 -73 63 C-73.09381302 61.15881971 -73.11743954 59.31402359 -73.11352539 57.47045898 C-73.11344986 56.28931015 -73.11337433 55.10816132 -73.11329651 53.89122009 C-73.10813522 52.6058284 -73.10297394 51.32043671 -73.09765625 49.99609375 C-73.0962413 48.68794205 -73.09482635 47.37979034 -73.09336853 46.03199768 C-73.0895441 42.54837141 -73.07971446 39.06478661 -73.06866455 35.58117676 C-73.05844882 32.02873292 -73.05387056 28.47628241 -73.04882812 24.92382812 C-73.03809212 17.94920168 -73.0210166 10.97460283 -73 4 C-65.45617231 3.8982808 -57.9125226 3.82840025 -50.36816406 3.78027344 C-47.8036437 3.76020272 -45.23916885 3.73293999 -42.67480469 3.69824219 C-38.98100529 3.64952645 -35.28781291 3.62698487 -31.59375 3.609375 C-29.8839093 3.57840729 -29.8839093 3.57840729 -28.13952637 3.54681396 C-20.25543692 3.54460949 -14.74791194 4.56441406 -8.75 10.0625 C-5.28236658 15.88317038 -2.65250459 22.14937611 -3 29 C-1.68 29 -0.36 29 1 29 C0.89171875 27.61941406 0.89171875 27.61941406 0.78125 26.2109375 C0.13863167 17.44633749 -0.12193395 8.79279253 0 0 Z " fill="#252122" transform="translate(651,548)"/>
<path d="M0 0 C20.79 0 41.58 0 63 0 C63 1.32 63 2.64 63 4 C62.28714844 4.02578125 61.57429687 4.0515625 60.83984375 4.078125 C54.44994714 4.45653072 50.23024613 5.24786691 45 9 C41.70415165 15.5916967 42.80437711 25.25377692 42.68359375 32.4765625 C42.66494263 33.41008545 42.6462915 34.3436084 42.6270752 35.30541992 C42.55951065 38.74519684 42.49889796 42.18510749 42.4375 45.625 C42.293125 53.33875 42.14875 61.0525 42 69 C64.77 69 87.54 69 111 69 C110.896875 59.863125 110.79375 50.72625 110.6875 41.3125 C110.66260498 38.43442627 110.63770996 35.55635254 110.61206055 32.59106445 C110.57977198 30.30678671 110.54639846 28.02252394 110.51171875 25.73828125 C110.50547485 24.55472046 110.49923096 23.37115967 110.49279785 22.1517334 C110.46288757 20.44721008 110.46288757 20.44721008 110.43237305 18.70825195 C110.42126999 17.72452103 110.41016693 16.7407901 110.39872742 15.72724915 C109.92796909 12.50731694 108.89792916 10.62412397 107 8 C101.80728035 4.36509624 96.14023084 4.31684465 90 4 C90 2.68 90 1.36 90 0 C111.12 0 132.24 0 154 0 C153.67 1.32 153.34 2.64 153 4 C152.26394531 4.03738281 151.52789063 4.07476563 150.76953125 4.11328125 C143.37406401 4.51119575 143.37406401 4.51119575 137 8 C136.4225 8.45375 135.845 8.9075 135.25 9.375 C132.71245125 12.67381338 132.87366993 16.96724669 132.85955811 20.98921204 C132.85384796 21.9689801 132.84813782 22.94874817 132.84225464 23.95820618 C132.84113678 25.02169785 132.84001892 26.08518951 132.83886719 27.1809082 C132.83390228 28.30995575 132.82893738 29.4390033 132.82382202 30.6022644 C132.80922421 34.33510957 132.80240259 38.06791224 132.796875 41.80078125 C132.79112193 44.39763897 132.78536421 46.99449667 132.77960205 49.59135437 C132.77044067 54.34059951 132.76413739 59.0898277 132.7611053 63.83908015 C132.75662668 70.81424781 132.73908237 77.78921931 132.7101047 84.76432735 C132.68582725 90.81969118 132.67815831 96.87496265 132.67642975 102.93037987 C132.67340584 105.49995174 132.66538617 108.06952284 132.65224457 110.63906288 C132.63515808 114.23649521 132.63707094 117.83345157 132.64355469 121.4309082 C132.62973251 123.01703667 132.62973251 123.01703667 132.6156311 124.63520813 C132.65029687 130.78653188 133.33324886 135.42229998 136 141 C138.11788909 142.73811187 138.11788909 142.73811187 140.6875 143.4375 C141.56535156 143.73011719 142.44320313 144.02273438 143.34765625 144.32421875 C146.92080839 145.2346095 150.32290458 145.72762256 154 146 C153.67 147.32 153.34 148.64 153 150 C132.21 150 111.42 150 90 150 C90 148.35 90 146.7 90 145 C90.72445313 144.96261719 91.44890625 144.92523437 92.1953125 144.88671875 C100.0486116 144.41658235 100.0486116 144.41658235 107 141 C111.14348777 135.17432969 110.47669104 128.57979065 110.51171875 121.7265625 C110.52835571 120.5924292 110.54499268 119.4582959 110.56213379 118.28979492 C110.61980488 114.06838371 110.65215366 109.84665716 110.6875 105.625 C110.8421875 91.455625 110.8421875 91.455625 111 77 C88.56 77.33 66.12 77.66 43 78 C42.9175 87.44625 42.835 96.8925 42.75 106.625 C42.69537598 111.08507568 42.69537598 111.08507568 42.63964844 115.63525391 C42.62796306 117.99901609 42.61777088 120.36278634 42.609375 122.7265625 C42.5786792 124.55900513 42.5786792 124.55900513 42.54736328 126.4284668 C42.5228497 135.02189003 42.5228497 135.02189003 47 142 C51.6825501 145.03972265 57.55820393 145.51412535 63 146 C63 147.32 63 148.64 63 150 C42.21 150 21.42 150 0 150 C0 148.35 0 146.7 0 145 C1.19496094 144.96132813 1.19496094 144.96132813 2.4140625 144.921875 C10.96981265 144.54634983 10.96981265 144.54634983 18 140 C20.67066783 134.30915684 20.28138227 128.4407616 20.25878906 122.29077148 C20.2622937 121.11774475 20.26579834 119.94471802 20.26940918 118.73614502 C20.27820123 114.86440081 20.27238649 110.99283977 20.265625 107.12109375 C20.26607049 104.4287959 20.26891032 101.73650131 20.27142334 99.04420471 C20.2750571 93.40453104 20.27027888 87.76490984 20.26074219 82.12524414 C20.24985347 75.61092473 20.25338857 69.09673048 20.264395 62.58241409 C20.27347842 56.9814012 20.27474816 51.38042592 20.26951766 45.77940804 C20.26640442 42.43755985 20.26675963 39.09581766 20.27259064 35.75396538 C20.27766394 32.02916853 20.26993419 28.30461285 20.25878906 24.57983398 C20.26283752 23.47579727 20.26688599 22.37176056 20.27105713 21.23426819 C20.26541748 20.21795319 20.25977783 19.20163818 20.25396729 18.15452576 C20.25283621 16.83468516 20.25283621 16.83468516 20.25168228 15.48818111 C19.96635861 12.66741449 19.24377422 10.54180432 18 8 C12.73592885 4.83933149 5.98868889 4.47529277 0 4 C0 2.68 0 1.36 0 0 Z " fill="#FAFAFA" transform="translate(939,544)"/>
<path d="M0 0 C17.08954659 13.60563776 29.4656472 31.99114676 32 54 C32.16060463 57.43864094 32.18502908 60.87050355 32.1875 64.3125 C32.19974609 65.19873047 32.21199219 66.08496094 32.22460938 66.99804688 C32.2382763 73.24383059 31.39660416 78.92615318 30 85 C29.85731689 85.76876465 29.71463379 86.5375293 29.56762695 87.32958984 C28.50198461 92.88816222 26.58968527 97.4865512 23.875 102.4375 C23.47394043 103.17685791 23.07288086 103.91621582 22.65966797 104.67797852 C19.34031496 110.65346863 15.70281292 116.0124296 11 121 C10.22527344 121.82757812 9.45054688 122.65515625 8.65234375 123.5078125 C3.39705448 128.691763 -2.02463637 132.45452293 -8.5 135.9375 C-9.17538818 136.30302979 -9.85077637 136.66855957 -10.54663086 137.04516602 C-20.10617012 141.92355224 -29.33865017 143.48379418 -40 143.3125 C-41.50433594 143.31733398 -41.50433594 143.31733398 -43.0390625 143.32226562 C-60.97524002 143.19481217 -77.87944394 137.3547227 -91.14453125 124.91015625 C-108.74351424 106.7924664 -114.69158139 85.85566528 -114.47119141 61.07299805 C-113.92460764 42.3170774 -107.6881415 25.99252988 -95 12 C-94.30003906 11.21882812 -93.60007812 10.43765625 -92.87890625 9.6328125 C-69.27200147 -15.36273374 -28.08453086 -20.51291044 0 0 Z M-62 0 C-62.69867187 0.43570313 -63.39734375 0.87140625 -64.1171875 1.3203125 C-74.77062815 8.6772168 -82.73491272 20.46206486 -86 33 C-86.60269884 36.40725747 -87.11666306 39.81196106 -87.5703125 43.2421875 C-88 46 -88 46 -89 48 C-89.12316914 50.40161171 -89.18838127 52.77299058 -89.203125 55.17578125 C-89.20882507 55.89678513 -89.21452515 56.617789 -89.22039795 57.36064148 C-89.22985953 58.89479098 -89.23638651 60.42896091 -89.24023438 61.96313477 C-89.24980473 64.26552376 -89.28075614 66.56696653 -89.3125 68.86914062 C-89.37843194 77.99021988 -88.56010824 86.1751471 -86 95 C-85.80116211 95.73677979 -85.60232422 96.47355957 -85.39746094 97.23266602 C-81.13896223 112.51804864 -73.53665487 124.85794408 -59.53515625 132.77734375 C-49.45895344 137.63689919 -36.53260798 137.27325524 -26 134 C-14.28108777 128.63131051 -5.5326098 120.69093143 0 109 C1.58188957 104.72265386 2.87375223 100.41796286 4 96 C4.35835937 94.75992188 4.71671875 93.51984375 5.0859375 92.2421875 C6.75191506 84.55399163 6.39536497 76.51839652 6.375 68.6875 C6.3737915 67.83718201 6.37258301 66.98686401 6.37133789 66.11077881 C6.29261462 45.75841325 4.79658117 23.06572868 -10.24609375 7.44921875 C-19.85253786 -0.48839988 -28.96242458 -4.57831071 -41.375 -4.4375 C-42.77045044 -4.42614014 -42.77045044 -4.42614014 -44.1940918 -4.41455078 C-50.80155044 -4.25547481 -56.31008551 -3.59245582 -62 0 Z " fill="#FAFAFA" transform="translate(1197,553)"/>
<path d="M0 0 C37.95 0 75.9 0 115 0 C115.61579623 11.08433209 116.14690316 21.93329491 116 33 C114.68 33 113.36 33 112 33 C111.54560547 31.35451172 111.54560547 31.35451172 111.08203125 29.67578125 C110.65970632 28.2211065 110.23648137 26.76669283 109.8125 25.3125 C109.61591797 24.59126953 109.41933594 23.87003906 109.21679688 23.12695312 C107.39659148 16.9942611 104.83164206 13.56287605 99.09472656 10.39648438 C93.83463525 8.23253332 88.32810034 8.51985376 82.72265625 8.48828125 C81.68782104 8.47164429 80.65298584 8.45500732 79.58679199 8.43786621 C75.74556506 8.38032027 71.90399506 8.34787752 68.0625 8.3125 C55.1615625 8.1578125 55.1615625 8.1578125 42 8 C42 27.8 42 47.6 42 68 C51.8690625 67.87625 51.8690625 67.87625 61.9375 67.75 C65.02532837 67.72631348 65.02532837 67.72631348 68.17553711 67.70214844 C69.83450028 67.67274289 71.49343902 67.64191076 73.15234375 67.609375 C73.99156372 67.60824707 74.83078369 67.60711914 75.69543457 67.60595703 C81.78224974 67.46084325 86.73375313 66.12428998 92 63 C96.5906678 58.17391334 97.13777768 52.37590714 98 46 C99.32 45.67 100.64 45.34 102 45 C102 62.16 102 79.32 102 97 C100.02 96.505 100.02 96.505 98 96 C97.84144531 95.10796875 97.68289063 94.2159375 97.51953125 93.296875 C97.16955078 91.54117188 97.16955078 91.54117188 96.8125 89.75 C96.59207031 88.58984375 96.37164063 87.4296875 96.14453125 86.234375 C94.56640712 81.77469315 92.1037229 80.21325115 88.11602783 77.91348267 C85.75625885 76.8947777 84.06852965 76.72531948 81.50683594 76.68115234 C80.62622498 76.66128265 79.74561401 76.64141296 78.83831787 76.62094116 C77.89651672 76.60938995 76.95471558 76.59783875 75.984375 76.5859375 C75.01340881 76.56657135 74.04244263 76.5472052 73.04205322 76.5272522 C69.94479114 76.46753491 66.84749174 76.4211022 63.75 76.375 C61.64842141 76.33681302 59.54685835 76.29776086 57.4453125 76.2578125 C52.29700132 76.16183969 47.14861688 76.0777794 42 76 C42.06123826 83.75418343 42.13836358 91.50803209 42.23571491 99.26183701 C42.28042253 102.86236071 42.31967741 106.46277117 42.34643555 110.06347656 C42.37246521 113.53907641 42.41286421 117.01424057 42.46318626 120.48957062 C42.48796499 122.45923522 42.49790086 124.42906839 42.50764465 126.39886475 C42.53733589 128.20027924 42.53733589 128.20027924 42.56762695 130.03808594 C42.58428154 131.6236026 42.58428154 131.6236026 42.60127258 133.2411499 C43.05131072 136.35502595 43.86075508 137.73144358 46 140 C49.71962165 141.63380713 54.058577 141.1620361 58.0625 141.16796875 C58.84963379 141.17129715 59.63676758 141.17462555 60.44775391 141.17805481 C62.11539122 141.18311269 63.78303862 141.18546349 65.45068359 141.18530273 C67.9633939 141.18746845 70.47564978 141.20557803 72.98828125 141.22460938 C92.24593038 141.48316676 92.24593038 141.48316676 109 133 C114.65190765 126.65288965 119.18937128 119.58295967 123 112 C124.32 112 125.64 112 127 112 C126.18773469 117.02321966 125.21821222 121.79269244 123.25 126.5 C120.10658083 134.18391352 117.62533067 142.124008 115 150 C77.05 150 39.1 150 0 150 C0.33 148.35 0.66 146.7 1 145 C2.08667969 144.96132813 2.08667969 144.96132813 3.1953125 144.921875 C9.88889994 144.52918454 14.14754752 143.85245248 19 139 C20.05938912 131.78262451 20.145193 124.49120922 20.12939453 117.21118164 C20.13114685 116.19497238 20.13289917 115.17876312 20.13470459 114.13175964 C20.13906767 110.80787392 20.13620455 107.48404241 20.1328125 104.16015625 C20.13348718 101.82807912 20.13445858 99.49600206 20.13571167 97.16392517 C20.13718118 92.28969652 20.13505832 87.41548627 20.13037109 82.54125977 C20.12467747 76.3200563 20.12795527 70.09889601 20.13394356 63.87769413 C20.13757205 59.06562479 20.13640004 54.25356555 20.13381577 49.4414959 C20.13315266 47.14876742 20.13395318 44.856038 20.13629532 42.56331062 C21.69994005 24.61360393 21.69994005 24.61360393 17.56985474 8.27870178 C13.80333274 5.21073741 10.56075674 4.688745 5.75 4.375 C4.67234375 4.30023437 3.5946875 4.22546875 2.484375 4.1484375 C1.25460937 4.07496094 1.25460937 4.07496094 0 4 C0 2.68 0 1.36 0 0 Z " fill="#F9F8F8" transform="translate(1464,544)"/>
<path d="M0 0 C0.67740234 -0.00386719 1.35480469 -0.00773438 2.05273438 -0.01171875 C9.04693825 0.00169295 14.89917472 0.79655911 21.3125 3.625 C26.85425675 6.04424406 30.91243916 7.56429006 37.0625 7.125 C39.68372831 5.31725634 40.77490983 2.99731652 42.0625 0.125 C43.3825 0.125 44.7025 0.125 46.0625 0.125 C46.0625 16.955 46.0625 33.785 46.0625 51.125 C44.7425 51.125 43.4225 51.125 42.0625 51.125 C41.84335938 50.18140625 41.62421875 49.2378125 41.3984375 48.265625 C38.29671059 35.47706938 34.30958537 23.26782403 22.86328125 15.6640625 C12.80839631 9.75745776 0.83985438 8.0704489 -10.57421875 10.7421875 C-16.26387934 13.26844152 -21.17058098 18.59116197 -23.9375 24.125 C-24.75202407 34.16648988 -24.75202407 34.16648988 -20.9375 43.125 C-16.09328197 48.60966317 -10.74454635 52.49486163 -4.5 56.25 C-3.14757202 57.07806152 -3.14757202 57.07806152 -1.76782227 57.92285156 C5.23376466 62.15650854 12.39963313 66.03973685 19.625 69.875 C34.66707716 77.88372256 49.55802765 86.83680658 55.3125 103.8125 C57.56952326 114.60065706 56.01564722 124.28781924 51.0625 134.125 C44.12144838 143.91636939 33.97662435 152.48409154 21.921875 154.703125 C5.50726668 156.49743441 -8.455639 154.75307532 -23.9375 149.125 C-27.54673962 147.92192013 -30.15136577 147.71934276 -33.9375 148.125 C-35.90877988 150.41004837 -35.90877988 150.41004837 -36.9375 153.125 C-37.4325 154.115 -37.4325 154.115 -37.9375 155.125 C-39.2575 155.125 -40.5775 155.125 -41.9375 155.125 C-41.9375 138.295 -41.9375 121.465 -41.9375 104.125 C-40.2875 104.125 -38.6375 104.125 -36.9375 104.125 C-36.73386841 104.94121826 -36.73386841 104.94121826 -36.52612305 105.77392578 C-35.89960074 108.26781864 -35.26239458 110.75886473 -34.625 113.25 C-34.41166016 114.1059375 -34.19832031 114.961875 -33.97851562 115.84375 C-31.22874479 126.5145025 -26.55101713 134.49057558 -17.0625 140.4375 C-15.37129387 141.36526181 -13.66335851 142.26341278 -11.9375 143.125 C-11.26332031 143.46660156 -10.58914063 143.80820312 -9.89453125 144.16015625 C-1.4386582 147.67662183 10.47161276 147.55825647 19.1875 144.9375 C25.49732162 142.30637747 30.74020335 138.65152867 34.17578125 132.625 C36.34968997 126.49591814 36.12703733 119.69652273 34.28125 113.50390625 C28.25965545 101.09512035 13.2619074 95.09127097 1.86572266 88.70703125 C-34.75336981 68.04062129 -34.75336981 68.04062129 -41.9375 51.125 C-44.44064182 39.54400842 -43.83595234 28.81531636 -37.4296875 18.7578125 C-30.96853786 9.83241045 -22.07884305 2.86793541 -11.1640625 0.53125 C-7.43061822 0.06117953 -3.75549687 -0.02131786 0 0 Z " fill="#FAF9F9" transform="translate(1414.9375,540.875)"/>
<path d="M0 0 C21.45 0 42.9 0 65 0 C65 1.32 65 2.64 65 4 C63.78763672 4.05607422 63.78763672 4.05607422 62.55078125 4.11328125 C61.48214844 4.17902344 60.41351562 4.24476563 59.3125 4.3125 C58.25675781 4.37050781 57.20101563 4.42851563 56.11328125 4.48828125 C51.76727159 5.2026191 49.08466607 6.91533393 46 10 C44.00094711 14.71692634 43.71353193 19.087384 43.74121094 24.13818359 C43.7377063 24.932659 43.73420166 25.7271344 43.73059082 26.54568481 C43.72181579 29.16335898 43.72761334 31.78076072 43.734375 34.3984375 C43.7330258 36.23483329 43.73108315 38.07122872 43.72857666 39.90762329 C43.72562998 43.75925085 43.72990344 47.61078559 43.73925781 51.46240234 C43.75057164 56.35502846 43.74414159 61.24743315 43.73211288 66.14005089 C43.72481289 69.93748578 43.72722048 73.73487008 43.73236847 77.53230667 C43.7336868 79.3332891 43.73212229 81.13427639 43.72740936 82.93525314 C43.11380372 109.69008265 43.11380372 109.69008265 54.1875 133 C64.83923782 142.41098594 76.82423918 142.76736861 90.30859375 142.23095703 C99.25726136 141.46304706 106.65616766 136.8497006 114 132 C114.66 132 115.32 132 116 132 C116.33 131.01 116.66 130.02 117 129 C117.66 129 118.32 129 119 129 C120.53246859 126.03814367 121.8330529 123.03682861 123.0625 119.9375 C123.57490234 118.65166016 123.57490234 118.65166016 124.09765625 117.33984375 C128.26683438 106.52885805 127.14841987 94.20274912 127.1328125 82.77734375 C127.13348769 81.02340176 127.13445951 79.26945986 127.13571167 77.51551819 C127.13717811 73.85693462 127.13506791 70.19837562 127.13037109 66.53979492 C127.12467022 61.87434149 127.12796182 57.20894556 127.13394356 52.54349422 C127.13757411 48.92732823 127.13639923 45.31117565 127.13381577 41.69500923 C127.13315361 39.97559159 127.13394976 38.25617269 127.13629532 36.53675652 C128.3388425 20.7929665 128.3388425 20.7929665 123 7 C117.92746866 4.64931475 112.50643247 4.41352655 107 4 C106.505 2.02 106.505 2.02 106 0 C123.49 0 140.98 0 159 0 C159 1.32 159 2.64 159 4 C157.91332031 4.03867187 157.91332031 4.03867187 156.8046875 4.078125 C150.84169129 4.42795411 146.56338087 4.77887269 142 9 C139.00642079 13.79487859 138.57587502 17.93837234 138.63110352 23.45776367 C138.62733704 24.28643448 138.62357056 25.11510529 138.61968994 25.96888733 C138.61327285 27.76287394 138.61357304 29.55689456 138.61987495 31.35088158 C138.62903788 34.20902742 138.61869684 37.06652423 138.60325623 39.92463684 C138.56333559 48.04927585 138.56193046 56.17386314 138.56420898 64.29858398 C138.5642607 69.27885153 138.54477859 74.25877437 138.51487541 79.23894691 C138.5042296 82.02096827 138.51608009 84.80227762 138.52870178 87.58427429 C138.49133805 105.68991328 136.71693418 124.0157805 123.9375 137.75 C111.6394214 149.81005127 96.19248049 152.53263015 79.5625 152.375 C77.73235352 152.39240234 77.73235352 152.39240234 75.86523438 152.41015625 C60.22144778 152.36025581 47.87223209 149.23241094 36.3984375 138.5 C28.22197842 129.9773065 23.74467476 121.24969898 22.84375 109.55078125 C22.72453186 108.09010979 22.72453186 108.09010979 22.60290527 106.59992981 C21.33637345 88.95076876 21.58768359 71.1888994 21.48431396 53.50384521 C21.45289696 48.24358792 21.41366316 42.9835012 21.36405945 37.72338295 C21.34426769 35.29401322 21.3357397 32.86478116 21.32775879 30.43534851 C21.66944414 18.9435519 21.66944414 18.9435519 19 8 C17.08921214 6.75840299 17.08921214 6.75840299 15 6 C14.34 5.67 13.68 5.34 13 5 C10.795636 4.77049681 8.58607827 4.58924067 6.375 4.4375 C5.18648437 4.35371094 3.99796875 4.26992188 2.7734375 4.18359375 C1.40058594 4.09271484 1.40058594 4.09271484 0 4 C0 2.68 0 1.36 0 0 Z " fill="#FBFAFA" transform="translate(1224,544)"/>
<path d="M0 0 C4.06584824 2.39167544 7.27648549 5.11252852 8.81153488 9.76726246 C9.22848216 12.10475441 9.31945767 14.28638018 9.32794189 16.66130066 C9.33365204 17.62142059 9.33936218 18.58154053 9.34524536 19.570755 C9.34636322 20.61756943 9.34748108 21.66438385 9.34863281 22.74291992 C9.35608017 24.40460205 9.35608017 24.40460205 9.36367798 26.09985352 C9.37829439 29.76839823 9.38510131 33.43689968 9.390625 37.10546875 C9.39637754 39.65651958 9.40213526 42.20757041 9.40789795 44.75862122 C9.41706386 49.42693765 9.42336431 54.09524113 9.4263947 58.76356429 C9.43086921 65.61761254 9.44839118 72.47146075 9.4773953 79.32544822 C9.50169359 85.2756074 9.50934281 91.22571726 9.51107025 97.17592812 C9.51409206 99.70001628 9.52210459 102.2241037 9.53525543 104.74815941 C9.55236841 108.2856281 9.55042237 111.82261378 9.54394531 115.36010742 C9.55776749 116.91514732 9.55776749 116.91514732 9.5718689 118.50160217 C9.53005256 125.81658687 8.94129604 132.82349628 3.875 138.4375 C-2.49010061 140.91881041 -9.55325742 141.00327618 -16.171875 139.25 C-19.59572638 137.61123353 -20.83873051 135.82042473 -22.46401978 132.43884277 C-24.31546275 127.12684656 -24.23283305 121.92664793 -24.20068359 116.35351562 C-24.20594055 115.22403 -24.21119751 114.09454437 -24.21661377 112.93083191 C-24.22976845 109.21416204 -24.22109135 105.49792388 -24.2109375 101.78125 C-24.21295953 99.18867918 -24.21587204 96.59610892 -24.21963501 94.00354004 C-24.22405225 88.57668094 -24.21793484 83.14998273 -24.20361328 77.72314453 C-24.18728912 71.4655385 -24.19257855 65.20822579 -24.2090925 58.95062685 C-24.22439147 52.90964519 -24.22271548 46.86880603 -24.2139473 40.82780457 C-24.21194975 38.2666164 -24.21438888 35.70542072 -24.22138596 33.14424133 C-24.22902657 29.56145558 -24.21735874 25.97922865 -24.20068359 22.39648438 C-24.20675629 21.34377853 -24.21282898 20.29107269 -24.21908569 19.20646667 C-24.16634159 13.07198238 -23.50527115 8.4250789 -20.8125 2.875 C-14.41337547 -2.34877512 -7.73809599 -2.28337259 0 0 Z " fill="#282425" transform="translate(378.8125,549.125)"/>
<path d="M0 0 C4.93640902 2.18990419 6.66538786 4.15449567 8.67578125 9.3125 C9.11669474 13.21040335 9.08559355 17.08649107 9.06396484 21.00585938 C9.0692218 22.17727982 9.07447876 23.34870026 9.07989502 24.55561829 C9.09308433 28.42263169 9.08436027 32.2892325 9.07421875 36.15625 C9.07488705 38.8461541 9.07914699 41.53605087 9.08291626 44.22595215 C9.08836728 49.86145486 9.08119945 55.49683946 9.06689453 61.13232422 C9.05056917 67.63872478 9.05585814 74.14484328 9.07237375 80.65123701 C9.08600733 86.24718364 9.08789916 91.84304558 9.08005774 97.43900347 C9.07539143 100.77701365 9.07591302 104.11478526 9.08466721 107.45280457 C9.09228688 111.17511049 9.08066917 114.89687501 9.06396484 118.61914062 C9.07307388 120.26980278 9.07307388 120.26980278 9.08236694 121.95381165 C9.02859322 128.4228871 8.43722291 132.97575799 4.17578125 138.125 C-0.27848803 141.65129652 -6.98713318 140.8278535 -12.32421875 140.3125 C-16.42830683 138.29645673 -18.86074851 136.11554807 -21.32421875 132.3125 C-21.83138847 130.10756683 -21.83138847 130.10756683 -22.00363159 127.72595215 C-22.06792233 126.84376511 -22.13221306 125.96157806 -22.198452 125.05265808 C-22.40289993 120.59822456 -22.46331651 116.15604524 -22.45361328 111.69726562 C-22.4553656 110.68774338 -22.45711792 109.67822113 -22.45892334 108.6381073 C-22.46329143 105.3316369 -22.46042172 102.02522086 -22.45703125 98.71875 C-22.45770574 96.40287262 -22.45867697 94.08699531 -22.45993042 91.77111816 C-22.46140056 86.92959923 -22.45927483 82.08809881 -22.45458984 77.24658203 C-22.44889299 71.05990373 -22.45217565 64.87326882 -22.45816231 58.6865921 C-22.46178637 53.90805742 -22.46062085 49.12953292 -22.45803452 44.35099792 C-22.45737035 42.07057185 -22.45817571 39.79014482 -22.46051407 37.50971985 C-22.46307096 34.31569999 -22.45915742 31.12174913 -22.45361328 27.92773438 C-22.45563751 26.99757004 -22.45766174 26.0674057 -22.45974731 25.10905457 C-22.40540612 8.09686419 -22.40540612 8.09686419 -19.01171875 3.8125 C-13.43138655 -1.3785067 -7.30275498 -2.16014265 0 0 Z " fill="#272324" transform="translate(325.32421875,548.6875)"/>
<path d="M0 0 C3.81517783 1.73417174 5.42074746 3.17018364 7 7 C8.25191562 13.75326939 8.1486102 20.73794201 8.14526367 27.58349609 C8.14862228 28.58980576 8.1519809 29.59611542 8.15544128 30.63291931 C8.16487025 33.92977157 8.16689018 37.22657263 8.16796875 40.5234375 C8.17118644 42.83452372 8.17455089 45.14560975 8.17805481 47.45669556 C8.18402559 52.28982007 8.18589677 57.12292675 8.18530273 61.95605469 C8.18520112 68.12463229 8.1988621 74.29309479 8.21607494 80.46164513 C8.22723519 85.23168454 8.22922072 90.00169646 8.22869301 94.77174759 C8.22986672 97.04494245 8.23425397 99.31813816 8.24202538 101.59132004 C8.3316483 130.50798723 8.3316483 130.50798723 4.79118347 135.81039429 C2.18377592 138.34889484 -0.07404895 139.01149035 -3.625 139.5625 C-7 139 -7 139 -9.3125 137.375 C-13.67282626 131.23824452 -13.29122904 124.73108796 -13.2746582 117.50610352 C-13.27976913 116.35579651 -13.28488007 115.2054895 -13.29014587 114.02032471 C-13.30403015 110.22313209 -13.30308601 106.42612121 -13.30078125 102.62890625 C-13.30466864 99.98624097 -13.30900339 97.34357632 -13.31376648 94.70091248 C-13.32196986 89.16379183 -13.32107771 83.62672223 -13.31567383 78.08959961 C-13.30963387 71.70024499 -13.3219492 65.31111058 -13.3432439 58.92179352 C-13.3630169 52.76122722 -13.36602981 46.60076353 -13.36250877 40.44016838 C-13.36302197 37.82511821 -13.36825932 35.21006451 -13.37832069 32.59503365 C-13.39066635 28.93761381 -13.38390412 25.2807028 -13.37231445 21.62329102 C-13.37995819 20.54514633 -13.38760193 19.46700165 -13.39547729 18.35618591 C-13.34875357 11.6800928 -12.95530138 6.15911527 -8.1875 1.0625 C-5.22168571 -0.37803837 -3.26524873 -0.39982638 0 0 Z " fill="#2A2627" transform="translate(550,549)"/>
<path d="M0 0 C7.23073042 7.00239157 9.86388427 14.52151815 10.10546875 24.359375 C9.90317756 33.52569435 6.8343859 40.82979153 0.60546875 47.484375 C-2.9798661 50.87980864 -6.54632476 53.03273184 -11.14453125 54.796875 C-11.92183594 55.0959375 -12.69914063 55.395 -13.5 55.703125 C-19.41154998 57.63488717 -24.86984765 57.95980062 -31.0234375 57.875 C-31.80690552 57.86936035 -32.59037354 57.8637207 -33.39758301 57.85791016 C-35.31328477 57.8433032 -37.22892431 57.82088846 -39.14453125 57.796875 C-39.16765835 49.59996939 -39.18544821 41.40307732 -39.19634342 33.20614719 C-39.20157145 29.40035923 -39.20866763 25.59459352 -39.2199707 21.78881836 C-39.23080245 18.11894956 -39.23680869 14.44910222 -39.23940849 10.77921867 C-39.24126222 9.37612508 -39.24488185 7.97303271 -39.25026131 6.5699482 C-39.25747544 4.6111782 -39.25793934 2.6523868 -39.25805664 0.69360352 C-39.26027725 -0.42336411 -39.26249786 -1.54033173 -39.26478577 -2.69114685 C-39.14453125 -5.203125 -39.14453125 -5.203125 -38.14453125 -6.203125 C-24.69363352 -8.62428659 -11.01548626 -8.88274741 0 0 Z " fill="#242021" transform="translate(724.14453125,559.203125)"/>
<path d="M0 0 C0.85291122 0.00141495 1.70582245 0.0028299 2.58457947 0.00428772 C5.27387191 0.00982686 7.96307703 0.02236745 10.65234375 0.03515625 C12.49023316 0.04017913 14.3281239 0.04474065 16.16601562 0.04882812 C20.64065797 0.05977625 25.11523613 0.07699786 29.58984375 0.09765625 C26.57455342 1.67403783 24.15425171 2.43811535 20.77734375 2.91015625 C6.59330012 5.37776543 -8.06758382 11.03485644 -19.41015625 20.09765625 C-15.68465979 30.97002348 -4.2209773 37.97896701 5.58984375 43.09765625 C13.33658023 46.69282677 21.38631279 49.48647662 29.8671875 50.67578125 C30.43566406 50.815 31.00414062 50.95421875 31.58984375 51.09765625 C31.91984375 51.75765625 32.24984375 52.41765625 32.58984375 53.09765625 C27.04383374 53.19795971 21.4983734 53.26978788 15.95166016 53.31738281 C14.07233461 53.33726307 12.19306892 53.36437712 10.31396484 53.39941406 C-15.88102418 53.87492374 -37.77833906 46.79560694 -57.5703125 28.95703125 C-59.4406183 27.06687082 -61.05443669 25.39126705 -62.41015625 23.09765625 C-62.33952778 20.26165158 -61.66698664 19.34273623 -59.6171875 17.38671875 C-42.19208159 5.27726505 -21.05682654 -0.13473446 0 0 Z " fill="#A9A7A8" transform="translate(1205.41015625,389.90234375)"/>
<path d="M0 0 C2.69429304 1.34714652 2.87551383 2.64285858 4.01538086 5.40869141 C4.40596176 6.34701813 4.79654266 7.28534485 5.19895935 8.25210571 C5.6167012 9.27492645 6.03444305 10.29774719 6.46484375 11.3515625 C6.89881973 12.39895599 7.33279572 13.44634949 7.77992249 14.52548218 C9.17211858 17.88941018 10.55496346 21.25709202 11.9375 24.625 C12.86591039 26.87395647 13.79493922 29.12265775 14.72460938 31.37109375 C16.81242012 36.42135924 18.89456427 41.47391244 20.96920776 46.52960205 C21.87706463 48.70537295 22.82472478 50.85741971 23.78735352 53.00927734 C25 56 25 56 25 59 C8.5 59 -8 59 -25 59 C-23.1708807 53.51264211 -21.44257334 48.46097018 -19.14453125 43.2265625 C-18.75007057 42.32279625 -18.75007057 42.32279625 -18.34764099 41.40077209 C-17.50602198 39.47399352 -16.65929665 37.54950783 -15.8125 35.625 C-14.64531703 32.95782432 -13.48077402 30.28949941 -12.31640625 27.62109375 C-12.03054657 26.96689957 -11.74468689 26.31270538 -11.45016479 25.63868713 C-8.65358447 19.22897253 -5.94183967 12.78460061 -3.27270508 6.32080078 C-1.10355602 1.10355602 -1.10355602 1.10355602 0 0 Z " fill="#262223" transform="translate(831,576)"/>
<path d="M0 0 C0.33 0 0.66 0 1 0 C1.09357306 15.50782639 1.16404263 31.01563156 1.20724869 46.52367401 C1.22784613 53.72486324 1.25591238 60.92587672 1.30175781 68.12695312 C1.34171241 74.40574913 1.3674533 80.68441782 1.37635398 86.96333742 C1.38155431 90.28595575 1.39583685 93.60812645 1.42292023 96.9306488 C1.45199885 100.6460419 1.45595394 104.36068311 1.45410156 108.07617188 C1.47567322 109.7161615 1.47567322 109.7161615 1.49768066 111.38928223 C1.46182221 118.04555662 0.57801952 122.33770819 -3 128 C-6.9375 131 -6.9375 131 -10 131 C-9.57912039 127.09083402 -8.57322359 123.67561941 -7.1875 120.02319336 C-1.60153592 105.20148305 0.15303816 92.31775633 0 76.5625 C0.00754626 74.33234248 0.01860447 72.10219441 0.03295898 69.87207031 C0.06099779 64.09175112 0.04236807 58.31256113 0.01287842 52.5322876 C-0.00875647 46.59827906 0.01531605 40.66445788 0.03515625 34.73046875 C0.06732174 23.15339324 0.05002024 11.57699249 0 0 Z " fill="#4A4647" transform="translate(663,558)"/>
</svg>
