<?xml version="1.0" encoding="UTF-8" standalone="no"?>
<svg
   xmlns:dc="http://purl.org/dc/elements/1.1/"
   xmlns:cc="http://creativecommons.org/ns#"
   xmlns:rdf="http://www.w3.org/1999/02/22-rdf-syntax-ns#"
   xmlns:svg="http://www.w3.org/2000/svg"
   xmlns="http://www.w3.org/2000/svg"
   viewBox="0 0 1122.52 793.70135"
   height="793.70135"
   width="1122.52"
   xml:space="preserve"
   id="svg2"
   version="1.1"><metadata
     id="metadata8"><rdf:RDF><cc:Work
         rdf:about=""><dc:format>image/svg+xml</dc:format><dc:type
           rdf:resource="http://purl.org/dc/dcmitype/StillImage" /></cc:Work></rdf:RDF></metadata><defs
     id="defs6"><linearGradient
       id="linearGradient48"
       spreadMethod="pad"
       gradientTransform="matrix(-724.00446,0,0,-724.00446,786.50476,321.18222)"
       gradientUnits="userSpaceOnUse"
       y2="0"
       x2="1"
       y1="0"
       x1="0"><stop
         id="stop30"
         offset="0"
         style="stop-opacity:1;stop-color:#58595b" /><stop
         id="stop32"
         offset="0.31086657"
         style="stop-opacity:1;stop-color:#8c858d" /><stop
         id="stop34"
         offset="0.311594"
         style="stop-opacity:1;stop-color:#8c858d" /><stop
         id="stop36"
         offset="0.55209862"
         style="stop-opacity:1;stop-color:#bcbcba" /><stop
         id="stop38"
         offset="0.55314"
         style="stop-opacity:1;stop-color:#bcbcba" /><stop
         id="stop40"
         offset="0.81626577"
         style="stop-opacity:1;stop-color:#7b757f" /><stop
         id="stop42"
         offset="0.819989"
         style="stop-opacity:1;stop-color:#7b757f" /><stop
         id="stop44"
         offset="0.99922391"
         style="stop-opacity:1;stop-color:#9f9f9e" /><stop
         id="stop46"
         offset="1"
         style="stop-opacity:1;stop-color:#9f9f9e" /></linearGradient></defs><g
     transform="matrix(1.3333333,0,0,-1.3333333,0,793.70133)"
     id="g10"><path
       id="path12"
       style="fill:#231f20;fill-opacity:1;fill-rule:nonzero;stroke:none"
       d="M 0,0 H 841.89 V 595.275 H 0 Z" /><text
       id="text16"
       style="font-variant:normal;font-weight:normal;font-stretch:normal;font-size:84.41439819px;font-family:Nyala;-inkscape-font-specification:Nyala-Regular;writing-mode:lr-tb;fill:#ffffff;fill-opacity:1;fill-rule:nonzero;stroke:none"
       transform="matrix(1,0,0,-1,62.5293,241.6865)"><tspan
         id="tspan14"
         y="0"
         x="0 52.590172 73.440529 136.70912 176.89038 221.29234 268.22675 287.97974 340.56989 396.19897 446.6788 484.74969">HIMERA HOUSE</tspan></text>
<g
       id="g18"><g
         id="g20"><g
           id="g26"><g
             id="g28"><path
               id="path50"
               style="fill:url(#linearGradient48);stroke:none"
               d="M 164.912,395.06 C 126.675,382.274 95.214,369.488 62.501,371.389 v 0 c 35.622,-23.107 285.461,-22.766 341.302,-43.396 v 0 c -32.895,16.117 -193.357,42.433 -239.249,41.149 v 0 c 51.027,26.957 89.442,47.841 211.81,31.771 v 0 c 33.978,-4.462 103.818,-34.5 124.839,-55.039 v 0 c -0.482,-8.825 -8.825,-15.564 -36.585,-17.169 v 0 c 0,0 26.958,-5.275 54.236,-0.712 v 0 c 27.279,4.563 143.613,-11.804 182.125,-28.973 v 0 c -40.276,2.086 -92.587,-28.723 -81.997,-75.577 v 0 c 1.284,5.776 11.478,58.784 78.947,65.788 v 0 c 58.73,6.099 88.576,-50.706 88.576,-50.706 v 0 c -7.221,33.698 -29.365,89.057 -242.138,103.98 v 0 c 0,0 -110.797,56.644 -164.752,67.597 v 0 c -30.904,6.273 -58.499,8.821 -83.453,8.82 v 0 C 242.172,418.92 200.587,406.99 164.912,395.06 m 287.91,-39.261 c -17.09,-0.642 -24.51,-8.063 -24.51,-8.063 v 0 c 0,0 7.702,-12.275 27.438,-12.275 v 0 c 2.88,0 5.912,0.188 8.893,0.557 v 0 c -14.584,2.39 -20.445,11.718 -20.445,11.718 v 0 c 0,0 5.956,5.921 19.431,7.635 v 0 c -2.642,0.319 -5.374,0.478 -8.123,0.478 v 0 c -0.894,0 -1.789,-0.016 -2.684,-0.05" /></g></g></g></g></g></svg>